<?xml version="1.0" encoding="UTF-8" standalone="no"?>
<!-- Created with Inkscape (http://www.inkscape.org/) -->

<svg
   width="212.22183mm"
   height="217.01411mm"
   viewBox="0 0 212.22183 217.01412"
   version="1.1"
   id="svg5423"
   inkscape:version="1.2 (dc2aeda, 2022-05-15)"
   sodipodi:docname="drawing.svg"
   xmlns:inkscape="http://www.inkscape.org/namespaces/inkscape"
   xmlns:sodipodi="http://sodipodi.sourceforge.net/DTD/sodipodi-0.dtd"
   xmlns="http://www.w3.org/2000/svg"
   xmlns:svg="http://www.w3.org/2000/svg">
  <sodipodi:namedview
     id="namedview5425"
     pagecolor="#ffffff"
     bordercolor="#000000"
     borderopacity="0.25"
     inkscape:showpageshadow="2"
     inkscape:pageopacity="0.0"
     inkscape:pagecheckerboard="0"
     inkscape:deskcolor="#d1d1d1"
     inkscape:document-units="mm"
     showgrid="false"
     inkscape:zoom="0.47633401"
     inkscape:cx="397.83008"
     inkscape:cy="479.7054"
     inkscape:window-width="1440"
     inkscape:window-height="847"
     inkscape:window-x="0"
     inkscape:window-y="25"
     inkscape:window-maximized="1"
     inkscape:current-layer="layer1" />
  <defs
     id="defs5420" />
  <g
     inkscape:label="Layer 1"
     inkscape:groupmode="layer"
     id="layer1"
     transform="translate(0,-22.218303)">
    <path
       style="fill:#2d3c4a;fill-opacity:0.777202;stroke:none;stroke-width:0.742464"
       d="m 82.683579,77.524 c 1.908071,0.0995 3.867927,0.475903 5.664349,1.019208 17.931612,5.423353 -2.59508,20.260871 -10.519478,25.758402 -2.852407,1.97888 -7.327221,5.7911 -11.327855,5.70386 C 58.90636,109.8397 56.986925,98.762719 57.974978,94.140279 60.105572,84.169511 70.491526,76.888461 82.683579,77.524 m 2.427577,2.534702 c -10.246761,-1.54371 -20.991214,3.411437 -23.876781,12.037857 -1.3214,3.9508 -1.591663,13.684931 4.69977,15.166561 3.238391,0.76265 7.211506,-2.75563 9.466719,-4.26936 6.544739,-4.393041 28.268236,-20.139313 9.710292,-22.935058 m 13.756215,6.587928 c 9.678709,16.64533 -11.674982,30.20829 -29.940006,25.88718 l 8.901085,-7.55095 21.038921,-18.33623 m -1.618373,4.087448 -23.466497,20.437232 c 12.798949,2.53561 29.197989,-8.93748 23.466497,-20.437232 M 79.446815,115.25877 c 11.565759,-3.73353 20.696655,-8.58056 22.657315,-19.756011 7.19611,1.84762 13.55151,11.570631 18.27635,16.349781 9.56278,9.67229 23.15532,20.10757 29.90606,31.34735 1.37107,2.28215 0.51819,4.85247 1.757,7.09105 4.30592,7.78249 9.40331,14.84491 1.29801,22.75484 -14.39947,14.05332 -30.99796,-1.23578 -41.52713,-10.1001 -4.47645,-3.76864 -10.82939,-11.09879 -17.757679,-6.51676 -12.776307,8.44739 12.113569,14.35103 7.077999,21.28744 -3.347629,4.61063 -10.519469,-2.59621 -12.774692,-4.55207 -6.566586,-5.69584 -8.977164,-13.60369 -2.732646,-20.37388 16.623178,-18.02157 36.545438,11.75211 48.844318,17.58762 7.13963,3.38712 16.32425,-2.85168 14.53856,-9.47607 -1.62738,-6.03719 -7.18335,-4.16035 -12.09908,-6.25244 -2.86104,-1.21805 -5.41196,-3.44505 -8.11569,-4.9574 C 116.87668,143.02414 105.99633,134.50247 94.821429,126.97613 89.802025,123.59512 82.388238,120.146 79.446815,115.25877 M 103.72252,99.590209 c -2.6388,7.711661 -10.022633,14.453111 -19.42055,16.349801 5.797003,9.05575 23.60323,16.98744 33.17676,23.43471 3.50702,2.36188 7.81193,6.52427 12.13785,7.68985 3.82238,1.02937 11.89081,-5.49625 11.9824,-8.64359 0.10259,-3.52064 -6.85108,-8.35132 -9.35253,-10.89987 -8.95289,-9.12181 -19.15514,-18.06638 -26.90556,-27.930901 h -1.61837 m 5.66432,12.086811 c 4.86566,1.55807 12.84993,8.15831 14.2142,12.43787 1.82151,5.71767 -4.41818,10.27451 -10.96531,8.47261 -5.19987,-1.43126 -13.695524,-8.75598 -14.893962,-13.24196 -1.471094,-5.50464 5.843182,-9.52627 11.645072,-7.66852 m -1.61837,1.95959 c -4.83413,-1.37509 -8.295029,2.69607 -6.67906,6.39085 1.59976,3.65759 7.98752,9.05913 12.34339,10.39096 4.20857,1.28689 9.02247,-1.7787 7.47528,-5.62227 -1.48161,-3.68212 -8.76594,-9.91548 -13.13961,-11.15954 m -0.0469,0.98985 c 5.64005,2.2925 1.40396,9.21188 -3.87925,6.73421 -4.679548,-2.19497 -1.07945,-8.74995 3.87925,-6.73421 m -3.999,2.67603 c 2.76907,4.10244 5.7671,-1.13581 0,0 m 41.26868,22.48097 -12.13785,10.89986 c 4.04283,-2.39727 10.94722,-6.76473 12.13788,-10.89986 m -8.90109,12.26234 c 4.74973,1.45445 9.83676,0.34678 13.10871,4.10108 6.29948,7.22867 -0.28576,18.54 -11.49034,17.55969 -17.31665,-1.51441 -23.07239,-27.39478 -42.887034,-23.34137 -16.700056,3.41643 -9.706232,27.93702 4.855128,26.20533 -3.553964,-4.24755 -10.11082,-7.68168 -11.666079,-12.9436 -1.795614,-6.07806 6.140112,-12.61523 13.284475,-10.79906 12.58126,3.19843 18.47783,17.13189 29.94001,22.07155 10.63233,4.58203 23.53026,-1.97899 23.90356,-11.95374 0.19815,-5.29461 -3.93423,-7.78931 -5.95338,-12.26236 -1.12293,-2.4879 -0.32101,-4.95057 -1.7664,-7.49365 z"
       id="path7380"
       inkscape:transform-center-x="-0.55545758"
       inkscape:transform-center-y="6.1100334" />
  </g>
</svg>
